<svg xmlns="http://www.w3.org/2000/svg" viewBox="0 0 32 32">
  <rect width="32" height="32" rx="6" fill="#FAF4E8"/>
  <path d="M8 6h12a2 2 0 0 1 2 2v16a2 2 0 0 1-2 2H8a2 2 0 0 1-2-2V8a2 2 0 0 1 2-2z" fill="#C65D3E" opacity="0.9"/>
  <path d="M10 6h10a2 2 0 0 1 2 2v16a2 2 0 0 1-2 2H10" fill="#FFFDF7" stroke="#E5D9C8" stroke-width="0.5"/>
  <line x1="13" y1="11" x2="19" y2="11" stroke="#2C1810" stroke-width="1" stroke-linecap="round" opacity="0.3"/>
  <line x1="13" y1="14" x2="18" y2="14" stroke="#2C1810" stroke-width="1" stroke-linecap="round" opacity="0.3"/>
  <line x1="13" y1="17" x2="19" y2="17" stroke="#2C1810" stroke-width="1" stroke-linecap="round" opacity="0.3"/>
  <line x1="13" y1="20" x2="16" y2="20" stroke="#2C1810" stroke-width="1" stroke-linecap="round" opacity="0.3"/>
</svg>
